<?xml version="1.0" encoding="UTF-8"?>
<!DOCTYPE svg PUBLIC "-//W3C//DTD SVG 1.1//EN" "http://www.w3.org/Graphics/SVG/1.1/DTD/svg11.dtd">
<!-- Creator: CorelDRAW -->
<svg xmlns="http://www.w3.org/2000/svg" xml:space="preserve" width="110px" height="110px" style="shape-rendering:geometricPrecision; text-rendering:geometricPrecision; image-rendering:optimizeQuality; fill-rule:evenodd; clip-rule:evenodd"
viewBox="0 0 110 110"
 xmlns:xlink="http://www.w3.org/1999/xlink">
 <defs>
  <style type="text/css">
   <![CDATA[
    .str0 {stroke:#4C4C4C;stroke-width:1.00041}
    .fil0 {fill:white}
   ]]>
  </style>
 </defs>
 <g id="Capa_x0020_1">
  <metadata id="CorelCorpID_0Corel-Layer"/>
  <g id="_154452712">
   <rect id="_135156568" class="fil0 str0" x="-0.000592394" y="-0.00151161" width="110.001" height="110.001"/>
   <path id="_154453072" class="fil0 str0" d="M99.5187 110c0,-2.7024 -0.434652,-5.36701 -1.99609,-7.37845 -4.00636,-5.16149 -9.44659,-9.82101 -13.4057,-13.4636 -1.86026,-1.71144 -3.16186,-2.63626 -4.77881,-0.059056 -5.20283,8.28083 -11.8384,14.7238 -22.6527,15.8081 -1.15632,0.114569 -2.2146,0.114569 -3.37091,0 -10.8143,-1.08427 -17.4499,-7.52727 -22.6527,-15.8081 -1.61695,-2.5772 -2.91855,-1.65239 -4.77881,0.059056 -3.95911,3.64257 -9.39935,8.30209 -13.4057,13.4636 -1.56144,2.01145 -1.99609,4.67605 -1.99609,7.37845l89.0375 0z"/>
   <path id="_154452808" class="fil0 str0" d="M110.001 10.4801c-2.7024,0 -5.36701,0.434652 -7.37845,1.99609 -5.16149,4.00636 -9.82101,9.44659 -13.4636,13.4057 -1.71144,1.86026 -2.63626,3.16186 -0.059056,4.77881 8.28083,5.20283 14.7238,11.8384 15.8081,22.6527 0.114569,1.15632 0.114569,2.2146 0,3.37091 -1.08427,10.8143 -7.52727,17.4499 -15.8081,22.6527 -2.5772,1.61695 -1.65239,2.91855 0.059056,4.77881 3.64257,3.95911 8.30209,9.39935 13.4636,13.4057 2.01145,1.56144 4.67605,1.99609 7.37845,1.99609l0 -89.0375z"/>
   <path id="_154456936" class="fil0 str0" d="M10.4813 -0.00236224c0,2.7024 0.434652,5.36701 1.99609,7.37845 4.00636,5.16149 9.44659,9.82101 13.4057,13.4636 1.86026,1.71144 3.16186,2.63626 4.77881,0.059056 5.20283,-8.28083 11.8384,-14.7238 22.6527,-15.8081 1.15632,-0.114569 2.2146,-0.114569 3.37091,0 10.8143,1.08427 17.4499,7.52727 22.6527,15.8081 1.61695,2.5772 2.91855,1.65239 4.77881,-0.059056 3.95911,-3.64257 9.39935,-8.30209 13.4057,-13.4636 1.56144,-2.01145 1.99609,-4.67605 1.99609,-7.37845l-89.0375 0z"/>
   <path id="_135114848" class="fil0 str0" d="M-0.00118112 99.5176c2.7024,0 5.36701,-0.434652 7.37845,-1.99609 5.16149,-4.00636 9.82101,-9.44659 13.4636,-13.4057 1.71144,-1.86026 2.63626,-3.16186 0.059056,-4.77881 -8.28083,-5.20283 -14.7238,-11.8384 -15.8081,-22.6527 -0.114569,-1.15632 -0.114569,-2.2146 0,-3.37091 1.08427,-10.8143 7.52727,-17.4499 15.8081,-22.6527 2.5772,-1.61695 1.65239,-2.91855 -0.059056,-4.77881 -3.64257,-3.95911 -8.30209,-9.39935 -13.4636,-13.4057 -2.01145,-1.56144 -4.67605,-1.99609 -7.37845,-1.99609l0 89.0375z"/>
   <path id="_135115064" class="fil0 str0" d="M48.0479 96.6604c-7.63121,-2.62917 -14.0636,-8.93871 -12.8163,-17.653 0.420478,-2.94335 2.64807,-7.17648 6.03198,-7.23199 1.51892,-0.0248035 3.28942,0.836232 3.24217,2.50634 -0.0484259,1.75514 -1.39136,2.78744 -3.01776,2.73547 -0.851587,-0.0283469 -1.75396,-0.323627 -2.50752,0.132285 -1.43624,0.868123 -1.46341,2.63153 0.0177168,3.73352 0.69686,0.51733 1.86971,0.329532 2.8465,0.219688 0.426384,-0.0484259 0.569299,-0.122836 0.888202,0.144097 0.431109,0.357879 0.911824,0.582292 1.40908,0.850406 0.367328,0.198428 0.317721,0.133466 0.558669,-0.212601 1.62758,-2.3268 2.44137,-4.94062 2.66697,-7.95956 0.0460637,-0.615363 -0.181892,-0.996865 0.477172,-0.651978 1.15632,0.605914 2.12129,1.43152 2.97996,2.37759 0.401581,0.441739 0.499613,0.396856 0.125199,0.849225 -1.85554,2.24295 -3.01422,4.7103 -3.19138,7.54735 -0.0389769,0.629537 -0.186617,0.765365 0.468904,0.661427 1.02167,-0.162994 1.98546,-0.44292 2.92209,-0.775995 0.310634,-0.109844 0.291736,-0.177168 0.396856,0.135829 0.576386,1.70672 1.7138,3.13233 3.16068,4.31345 0.310634,0.253941 0.275201,0.25276 0.585835,0 1.44687,-1.1823 2.58429,-2.60673 3.16068,-4.31345 0.10512,-0.312997 0.0862217,-0.245673 0.396856,-0.135829 0.936628,0.333076 1.90042,0.613001 2.92209,0.775995 0.655521,0.103938 0.507881,-0.0318902 0.468904,-0.661427 -0.177168,-2.83705 -1.33585,-5.30441 -3.19138,-7.54735 -0.374415,-0.452369 -0.276382,-0.407486 0.125199,-0.849225 0.858674,-0.946077 1.82365,-1.77168 2.97996,-2.37759 0.659065,-0.344887 0.431109,0.0366147 0.477172,0.651978 0.225594,3.01894 1.03938,5.63276 2.66697,7.95956 0.240948,0.346068 0.191341,0.41103 0.558669,0.212601 0.497251,-0.268114 0.977967,-0.492527 1.40908,-0.850406 0.318902,-0.266933 0.461818,-0.192522 0.888202,-0.144097 0.976786,0.109844 2.14964,0.297642 2.8465,-0.219688 1.48112,-1.10198 1.45396,-2.8654 0.0177168,-3.73352 -0.753554,-0.455912 -1.65593,-0.160632 -2.50752,-0.132285 -1.6264,0.0519692 -2.96933,-0.980329 -3.01776,-2.73547 -0.0472448,-1.6701 1.72325,-2.53114 3.24217,-2.50634 3.38391,0.0555126 5.6115,4.28864 6.03198,7.23199 1.25671,8.7828 -5.28551,15.1219 -12.9947,17.7132 -4.70676,1.58152 -9.02848,1.5579 -13.7258,-0.0602371z"/>
   <path id="_135115160" class="fil0 str0" d="M96.6616 61.9509c-2.62917,7.63121 -8.93871,14.0636 -17.653,12.8163 -2.94335,-0.420478 -7.17648,-2.64807 -7.23199,-6.03198 -0.0248035,-1.51892 0.836232,-3.28942 2.50634,-3.24217 1.75514,0.0484259 2.78744,1.39136 2.73547,3.01776 -0.0283469,0.851587 -0.323627,1.75396 0.132285,2.50752 0.868123,1.43624 2.63153,1.46341 3.73352,-0.0177168 0.51733,-0.69686 0.329532,-1.86971 0.219688,-2.8465 -0.0484259,-0.426384 -0.122836,-0.569299 0.144097,-0.888202 0.357879,-0.431109 0.582292,-0.911824 0.850406,-1.40908 0.198428,-0.367328 0.133466,-0.317721 -0.212601,-0.558669 -2.3268,-1.62758 -4.94062,-2.44137 -7.95956,-2.66697 -0.615363,-0.0460637 -0.996865,0.181892 -0.651978,-0.477172 0.605914,-1.15632 1.43152,-2.12129 2.37759,-2.97996 0.441739,-0.401581 0.396856,-0.499613 0.849225,-0.125199 2.24295,1.85554 4.7103,3.01422 7.54735,3.19138 0.629537,0.0389769 0.765365,0.186617 0.661427,-0.468904 -0.162994,-1.02167 -0.44292,-1.98546 -0.775995,-2.92209 -0.109844,-0.310634 -0.177168,-0.291736 0.135829,-0.396856 1.70672,-0.576386 3.13233,-1.7138 4.31345,-3.16068 0.253941,-0.310634 0.25276,-0.275201 0,-0.585835 -1.1823,-1.44687 -2.60673,-2.58429 -4.31345,-3.16068 -0.312997,-0.10512 -0.245673,-0.0862217 -0.135829,-0.396856 0.333076,-0.936628 0.613001,-1.90042 0.775995,-2.92209 0.103938,-0.655521 -0.0318902,-0.507881 -0.661427,-0.468904 -2.83705,0.177168 -5.30441,1.33585 -7.54735,3.19138 -0.452369,0.374415 -0.407486,0.276382 -0.849225,-0.125199 -0.946077,-0.858674 -1.77168,-1.82365 -2.37759,-2.97996 -0.344887,-0.659065 0.0366147,-0.431109 0.651978,-0.477172 3.01894,-0.225594 5.63276,-1.03938 7.95956,-2.66697 0.346068,-0.240948 0.41103,-0.191341 0.212601,-0.558669 -0.268114,-0.497251 -0.492527,-0.977967 -0.850406,-1.40908 -0.266933,-0.318902 -0.192522,-0.461818 -0.144097,-0.888202 0.109844,-0.976786 0.297642,-2.14964 -0.219688,-2.8465 -1.10198,-1.48112 -2.8654,-1.45396 -3.73352,-0.0177168 -0.455912,0.753554 -0.160632,1.65593 -0.132285,2.50752 0.0519692,1.6264 -0.980329,2.96933 -2.73547,3.01776 -1.6701,0.0472448 -2.53114,-1.72325 -2.50634,-3.24217 0.0555126,-3.38391 4.28864,-5.6115 7.23199,-6.03198 8.7828,-1.25671 15.1219,5.28551 17.7132,12.9947 1.58152,4.70676 1.5579,9.02848 -0.0602371,13.7258z"/>
   <path id="_135115040" class="fil0 str0" d="M61.9521 13.3372c7.63121,2.62917 14.0636,8.93871 12.8163,17.653 -0.420478,2.94335 -2.64807,7.17648 -6.03198,7.23199 -1.51892,0.0248035 -3.28942,-0.836232 -3.24217,-2.50634 0.0484259,-1.75514 1.39136,-2.78744 3.01776,-2.73547 0.851587,0.0283469 1.75396,0.323627 2.50752,-0.132285 1.43624,-0.868123 1.46341,-2.63153 -0.0177168,-3.73352 -0.69686,-0.51733 -1.86971,-0.329532 -2.8465,-0.219688 -0.426384,0.0484259 -0.569299,0.122836 -0.888202,-0.144097 -0.431109,-0.357879 -0.911824,-0.582292 -1.40908,-0.850406 -0.367328,-0.198428 -0.317721,-0.133466 -0.558669,0.212601 -1.62758,2.3268 -2.44137,4.94062 -2.66697,7.95956 -0.0460637,0.615363 0.181892,0.996865 -0.477172,0.651978 -1.15632,-0.605914 -2.12129,-1.43152 -2.97996,-2.37759 -0.401581,-0.441739 -0.499613,-0.396856 -0.125199,-0.849225 1.85554,-2.24295 3.01422,-4.7103 3.19138,-7.54735 0.0389769,-0.629537 0.186617,-0.765365 -0.468904,-0.661427 -1.02167,0.162994 -1.98546,0.44292 -2.92209,0.775995 -0.310634,0.109844 -0.291736,0.177168 -0.396856,-0.135829 -0.576386,-1.70672 -1.7138,-3.13233 -3.16068,-4.31345 -0.310634,-0.253941 -0.275201,-0.25276 -0.585835,0 -1.44687,1.1823 -2.58429,2.60673 -3.16068,4.31345 -0.10512,0.312997 -0.0862217,0.245673 -0.396856,0.135829 -0.936628,-0.333076 -1.90042,-0.613001 -2.92209,-0.775995 -0.655521,-0.103938 -0.507881,0.0318902 -0.468904,0.661427 0.177168,2.83705 1.33585,5.30441 3.19138,7.54735 0.374415,0.452369 0.276382,0.407486 -0.125199,0.849225 -0.858674,0.946077 -1.82365,1.77168 -2.97996,2.37759 -0.659065,0.344887 -0.431109,-0.0366147 -0.477172,-0.651978 -0.225594,-3.01894 -1.03938,-5.63276 -2.66697,-7.95956 -0.240948,-0.346068 -0.191341,-0.41103 -0.558669,-0.212601 -0.497251,0.268114 -0.977967,0.492527 -1.40908,0.850406 -0.318902,0.266933 -0.461818,0.192522 -0.888202,0.144097 -0.976786,-0.109844 -2.14964,-0.297642 -2.8465,0.219688 -1.48112,1.10198 -1.45396,2.8654 -0.0177168,3.73352 0.753554,0.455912 1.65593,0.160632 2.50752,0.132285 1.6264,-0.0519692 2.96933,0.980329 3.01776,2.73547 0.0472448,1.6701 -1.72325,2.53114 -3.24217,2.50634 -3.38391,-0.0555126 -5.6115,-4.28864 -6.03198,-7.23199 -1.25671,-8.7828 5.28551,-15.1219 12.9947,-17.7132 4.70676,-1.58152 9.02848,-1.5579 13.7258,0.0602371z"/>
   <path id="_135115328" class="fil0 str0" d="M13.3384 48.0468c2.62917,-7.63121 8.93871,-14.0636 17.653,-12.8163 2.94335,0.420478 7.17648,2.64807 7.23199,6.03198 0.0248035,1.51892 -0.836232,3.28942 -2.50634,3.24217 -1.75514,-0.0484259 -2.78744,-1.39136 -2.73547,-3.01776 0.0283469,-0.851587 0.323627,-1.75396 -0.132285,-2.50752 -0.868123,-1.43624 -2.63153,-1.46341 -3.73352,0.0177168 -0.51733,0.69686 -0.329532,1.86971 -0.219688,2.8465 0.0484259,0.426384 0.122836,0.569299 -0.144097,0.888202 -0.357879,0.431109 -0.582292,0.911824 -0.850406,1.40908 -0.198428,0.367328 -0.133466,0.317721 0.212601,0.558669 2.3268,1.62758 4.94062,2.44137 7.95956,2.66697 0.615363,0.0460637 0.996865,-0.181892 0.651978,0.477172 -0.605914,1.15632 -1.43152,2.12129 -2.37759,2.97996 -0.441739,0.401581 -0.396856,0.499613 -0.849225,0.125199 -2.24295,-1.85554 -4.7103,-3.01422 -7.54735,-3.19138 -0.629537,-0.0389769 -0.765365,-0.186617 -0.661427,0.468904 0.162994,1.02167 0.44292,1.98546 0.775995,2.92209 0.109844,0.310634 0.177168,0.291736 -0.135829,0.396856 -1.70672,0.576386 -3.13233,1.7138 -4.31345,3.16068 -0.253941,0.310634 -0.25276,0.275201 0,0.585835 1.1823,1.44687 2.60673,2.58429 4.31345,3.16068 0.312997,0.10512 0.245673,0.0862217 0.135829,0.396856 -0.333076,0.936628 -0.613001,1.90042 -0.775995,2.92209 -0.103938,0.655521 0.0318902,0.507881 0.661427,0.468904 2.83705,-0.177168 5.30441,-1.33585 7.54735,-3.19138 0.452369,-0.374415 0.407486,-0.276382 0.849225,0.125199 0.946077,0.858674 1.77168,1.82365 2.37759,2.97996 0.344887,0.659065 -0.0366147,0.431109 -0.651978,0.477172 -3.01894,0.225594 -5.63276,1.03938 -7.95956,2.66697 -0.346068,0.240948 -0.41103,0.191341 -0.212601,0.558669 0.268114,0.497251 0.492527,0.977967 0.850406,1.40908 0.266933,0.318902 0.192522,0.461818 0.144097,0.888202 -0.109844,0.976786 -0.297642,2.14964 0.219688,2.8465 1.10198,1.48112 2.8654,1.45396 3.73352,0.0177168 0.455912,-0.753554 0.160632,-1.65593 0.132285,-2.50752 -0.0519692,-1.6264 0.980329,-2.96933 2.73547,-3.01776 1.6701,-0.0472448 2.53114,1.72325 2.50634,3.24217 -0.0555126,3.38391 -4.28864,5.6115 -7.23199,6.03198 -8.7828,1.25671 -15.1219,-5.28551 -17.7132,-12.9947 -1.58152,-4.70676 -1.5579,-9.02848 0.0602371,-13.7258z"/>
   <path id="_134762632" class="fil0 str0" d="M48.8464 52.45c-1.19884,1.539 -4.61936,-0.990959 -7.75523,-2.09294 -0.51733,-0.181892 -0.65434,-0.379139 -0.8445,0.175987 -0.239767,0.695679 -0.301185,1.39254 -0.291736,2.0894 0.00472448,0.36969 -0.0059056,0.320083 -0.328351,0.505519 -0.796074,0.460637 -1.56616,0.931903 -2.01381,1.61105 -0.161813,0.246854 -0.160632,0.272839 0,0.519692 0.447644,0.679144 1.21773,1.15041 2.01381,1.61105 0.322446,0.185436 0.333076,0.135829 0.328351,0.505519 -0.00944895,0.69686 0.0519692,1.39372 0.291736,2.0894 0.19016,0.555126 0.32717,0.357879 0.8445,0.175987 3.13587,-1.10198 6.55639,-3.63194 7.75523,-2.09294 0.239767,1.93585 -3.9662,2.56539 -6.96388,4.00399 -0.494889,0.237405 -0.731113,0.193704 -0.472448,0.721664 0.322446,0.661427 0.772452,1.19765 1.27088,1.68309 0.264571,0.258665 0.223232,0.230318 0.12638,0.59056 -0.238586,0.888202 -0.450006,1.76577 -0.285831,2.56185 0.0602371,0.289374 0.079135,0.308272 0.368509,0.368509 0.796074,0.164176 1.67365,-0.0472448 2.56185,-0.285831 0.360241,-0.0968518 0.331895,-0.138191 0.59056,0.12638 0.48544,0.498432 1.02167,0.948439 1.68309,1.27088 0.52796,0.258665 0.484259,0.0224413 0.721664,-0.472448 1.4386,-2.99768 2.06696,-7.20365 4.00399,-6.96388 1.539,1.19884 -0.989778,4.61936 -2.09294,7.75523 -0.181892,0.51733 -0.379139,0.65434 0.175987,0.8445 0.695679,0.239767 1.39254,0.301185 2.0894,0.291736 0.36969,-0.00472448 0.320083,0.0059056 0.505519,0.328351 0.460637,0.796074 0.931903,1.56616 1.61105,2.01381 0.246854,0.161813 0.272839,0.160632 0.519692,0 0.679144,-0.447644 1.15041,-1.21773 1.61105,-2.01381 0.185436,-0.322446 0.135829,-0.333076 0.505519,-0.328351 0.69686,0.00944895 1.39372,-0.0519692 2.0894,-0.291736 0.555126,-0.19016 0.357879,-0.32717 0.175987,-0.8445 -1.10198,-3.13587 -3.63194,-6.55639 -2.09294,-7.75523 1.93585,-0.239767 2.56539,3.9662 4.00399,6.96388 0.237405,0.494889 0.193704,0.731113 0.721664,0.472448 0.661427,-0.322446 1.19765,-0.772452 1.68309,-1.27088 0.258665,-0.264571 0.230318,-0.223232 0.59056,-0.12638 0.888202,0.238586 1.76577,0.450006 2.56185,0.285831 0.289374,-0.0602371 0.308272,-0.079135 0.368509,-0.368509 0.164176,-0.796074 -0.0472448,-1.67365 -0.285831,-2.56185 -0.0968518,-0.360241 -0.138191,-0.331895 0.12638,-0.59056 0.498432,-0.48544 0.948439,-1.02167 1.27088,-1.68309 0.258665,-0.52796 0.0224413,-0.484259 -0.472448,-0.721664 -2.99768,-1.4386 -7.20365,-2.06696 -6.96388,-4.00399 1.19884,-1.539 4.61936,0.989778 7.75523,2.09294 0.51733,0.181892 0.65434,0.379139 0.8445,-0.175987 0.239767,-0.695679 0.301185,-1.39254 0.291736,-2.0894 -0.00472448,-0.36969 0.0059056,-0.320083 0.328351,-0.505519 0.796074,-0.460637 1.56616,-0.931903 2.01381,-1.61105 0.161813,-0.246854 0.160632,-0.272839 0,-0.519692 -0.447644,-0.679144 -1.21773,-1.15041 -2.01381,-1.61105 -0.322446,-0.185436 -0.333076,-0.135829 -0.328351,-0.505519 0.00944895,-0.69686 -0.0519692,-1.39372 -0.291736,-2.0894 -0.19016,-0.555126 -0.32717,-0.357879 -0.8445,-0.175987 -3.13587,1.10198 -6.55639,3.63194 -7.75523,2.09294 -0.239767,-1.93585 3.9662,-2.56539 6.96388,-4.00399 0.494889,-0.237405 0.731113,-0.193704 0.472448,-0.721664 -0.322446,-0.661427 -0.772452,-1.19765 -1.27088,-1.68309 -0.264571,-0.258665 -0.223232,-0.230318 -0.12638,-0.59056 0.238586,-0.888202 0.450006,-1.76577 0.285831,-2.56185 -0.0602371,-0.289374 -0.079135,-0.308272 -0.368509,-0.368509 -0.796074,-0.164176 -1.67365,0.0472448 -2.56185,0.285831 -0.360241,0.0968518 -0.331895,0.138191 -0.59056,-0.12638 -0.48544,-0.498432 -1.02167,-0.948439 -1.68309,-1.27088 -0.52796,-0.258665 -0.484259,-0.0224413 -0.721664,0.472448 -1.4386,2.99768 -2.06696,7.20365 -4.00399,6.96388 -1.539,-1.19884 0.989778,-4.61936 2.09294,-7.75523 0.181892,-0.51733 0.379139,-0.65434 -0.175987,-0.8445 -0.695679,-0.239767 -1.39254,-0.301185 -2.0894,-0.291736 -0.36969,0.00472448 -0.320083,-0.0059056 -0.505519,-0.328351 -0.460637,-0.796074 -0.931903,-1.56616 -1.61105,-2.01381 -0.246854,-0.161813 -0.272839,-0.160632 -0.519692,0 -0.679144,0.447644 -1.15041,1.21773 -1.61105,2.01381 -0.185436,0.322446 -0.135829,0.333076 -0.505519,0.328351 -0.69686,-0.00944895 -1.39372,0.0519692 -2.0894,0.291736 -0.555126,0.19016 -0.357879,0.32717 -0.175987,0.8445 1.10198,3.13587 3.63194,6.55639 2.09294,7.75523 -1.93585,0.239767 -2.56539,-3.9662 -4.00399,-6.96388 -0.237405,-0.494889 -0.193704,-0.731113 -0.721664,-0.472448 -0.661427,0.322446 -1.19765,0.772452 -1.68309,1.27088 -0.258665,0.264571 -0.230318,0.223232 -0.59056,0.12638 -0.888202,-0.238586 -1.76577,-0.450006 -2.56185,-0.285831 -0.289374,0.0602371 -0.308272,0.079135 -0.368509,0.368509 -0.164176,0.796074 0.0472448,1.67365 0.285831,2.56185 0.0968518,0.360241 0.138191,0.331895 -0.12638,0.59056 -0.498432,0.48544 -0.948439,1.02167 -1.27088,1.68309 -0.258665,0.52796 -0.0224413,0.484259 0.472448,0.721664 2.99768,1.4386 7.20365,2.06814 6.96388,4.00399z"/>
  </g>
 </g>
</svg>
